<?xml version="1.0" encoding="UTF-8" standalone="no"?>
<!DOCTYPE svg PUBLIC "-//W3C//DTD SVG 1.1//EN" "http://www.w3.org/Graphics/SVG/1.1/DTD/svg11.dtd">
<svg width="250px" height="250px" viewBox="0 0 4961 4961" version="1.1" xmlns="http://www.w3.org/2000/svg" xmlns:xlink="http://www.w3.org/1999/xlink" xml:space="preserve" xmlns:serif="http://www.serif.com/" style="fill-rule:evenodd;clip-rule:evenodd;stroke-linecap:round;stroke-linejoin:round;stroke-miterlimit:1.5;">
    <path id="Head" d="M2480.32,4393.55c-577.481,-1.639 -1029.71,-50.295 -1504.21,-405.233c-367.207,-274.68 -385.55,-477.495 -439.967,-678.162c-111.786,168.76 -244.925,263.258 -340.585,225.348c89.111,-110.3 199.241,-294.855 285.279,-509.081c-6.79,-56.124 -11.268,-112.957 -13.335,-170.399c-129.594,161.635 -258.775,250.727 -326.099,211.774c92.804,-99.768 217.03,-264.577 332.063,-457.742c3.709,-43.676 8.814,-86.956 15.271,-129.796c-210.841,149.988 -414.848,205.589 -488.731,122.32c132.062,-63.784 319.949,-187.146 500.409,-347.263c16.253,-14.422 32.218,-28.938 47.871,-43.506c6.739,-22.821 13.871,-45.472 21.389,-67.948c-128.669,-24.917 -217.094,-79.701 -232.089,-156.759c78.016,8.812 178.064,10.941 290.184,4.109c25.448,-59.445 53.676,-117.423 84.518,-173.769c-275.887,48.234 -515.599,-23.737 -560.417,-179.708c150.884,14.117 377.034,-4.206 608.904,-70.834c53.127,-15.266 104.654,-32.522 153.971,-51.161c61.189,-75.512 127.726,-146.516 199.032,-212.435c-172.331,4.832 -299.332,-36.538 -322.823,-118.289c146.658,-0.589 369.377,-30.851 601.248,-97.479l0.185,-0.053c55.928,-35.994 113.749,-69.296 173.28,-99.723c-100.45,-67.57 -156.075,-146.176 -142.803,-219.482c84.802,44.557 203.775,91.744 341.568,131.141c95.87,-36.512 195.237,-65.907 297.455,-87.539c-50.995,-99.827 -60.835,-188.751 -17.613,-244.823l1.04,1.487c44.182,63.051 106.995,137.593 183.905,215.265c82.27,-10.25 166.074,-15.531 251.101,-15.531l1.993,0.001c84.344,0.082 167.481,5.36 249.108,15.53c76.91,-77.672 139.723,-152.214 183.905,-215.265l1.04,-1.487c43.221,56.072 33.382,144.996 -17.614,244.823c102.219,21.632 201.586,51.027 297.456,87.539c137.793,-39.397 256.766,-86.584 341.568,-131.141c13.272,73.306 -42.353,151.912 -142.803,219.482c59.531,30.427 117.352,63.729 173.28,99.723l0.185,0.053c231.871,66.628 454.59,96.89 601.248,97.479c-23.491,81.751 -150.493,123.121 -322.823,118.289c71.306,65.919 137.843,136.923 199.032,212.435c49.317,18.639 100.844,35.895 153.971,51.161c231.87,66.628 458.02,84.951 608.903,70.834c-44.817,155.971 -284.529,227.942 -560.416,179.708c30.842,56.346 59.07,114.324 84.518,173.769c112.12,6.832 212.167,4.703 290.184,-4.109c-14.995,77.058 -103.42,131.842 -232.089,156.759c7.518,22.476 14.65,45.127 21.388,67.948c15.654,14.568 31.619,29.084 47.872,43.506c180.46,160.117 368.347,283.479 500.409,347.263c-73.883,83.269 -277.89,27.668 -488.731,-122.32c6.457,42.84 11.562,86.12 15.27,129.796c115.034,193.165 239.26,357.974 332.064,457.742c-67.324,38.953 -196.505,-50.139 -326.099,-211.774c-2.067,57.442 -6.545,114.275 -13.335,170.399c86.038,214.226 196.168,398.781 285.278,509.081c-95.659,37.91 -228.798,-56.588 -340.584,-225.348c-41.821,154.218 -210.411,436.74 -546.49,688.924c-437.276,328.121 -820.208,396.109 -1397.69,394.471Z" style="fill:rgb(144,175,197);stroke:black;stroke-width:45.83px;"/>
    <circle id="Left-frame" serif:id="Left frame" cx="1783.43" cy="1821.38" r="508.65" style="fill:rgb(68,170,187);stroke:black;stroke-width:29.17px;"/>
    <circle id="Left-frame1" serif:id="Left frame" cx="3211.73" cy="1821.38" r="508.65" style="fill:rgb(68,170,187);stroke:black;stroke-width:29.17px;"/>
    <g id="Left-inside-lens" serif:id="Left inside lens">
        <path d="M1613.83,1459.78c51.491,-24.217 108.981,-37.757 169.608,-37.757c47.513,0 93.098,8.316 135.38,23.569l0.046,0.017l0.34,0.123l0.339,0.122l0.046,0.017c42.264,15.303 82.632,38.053 119.166,68.429c46.619,38.76 82.169,85.926 106.28,137.468c24.217,51.491 37.756,108.981 37.756,169.608c0,47.513 -8.315,93.098 -23.569,135.38l-0.016,0.046l-0.123,0.339l-0.122,0.34l-0.017,0.046c-15.303,42.264 -38.053,82.632 -68.429,119.166c-38.761,46.619 -85.926,82.169 -137.468,106.279c-51.491,24.218 -108.981,37.757 -169.609,37.757c-18.05,0 -35.822,-1.2 -53.24,-3.525l0.001,-0.052c-9.337,-1.244 -18.645,-2.821 -27.904,-4.731l0,0.044c-18.589,-3.843 -36.707,-8.98 -54.255,-15.311l-0.027,-0.01l-0.141,-0.051l-0.414,-0.15l-0.096,-0.035c-42.291,-15.303 -82.685,-38.062 -119.24,-68.455c-13.88,-11.54 -26.778,-23.825 -38.685,-36.749l0.075,-0.088c-6.387,-6.942 -12.531,-14.111 -18.419,-21.492l-0.082,0.097c-19.698,-24.694 -36.102,-51.31 -49.155,-79.207c-24.226,-51.499 -37.77,-108.999 -37.77,-169.638c0,-47.514 8.316,-93.102 23.571,-135.386l0.022,-0.06l0.233,-0.646l0.004,-0.012l0.001,-0.001c15.303,-42.28 38.058,-82.665 68.445,-119.212c38.761,-46.618 85.926,-82.168 137.468,-106.279Z"/>
        <path d="M1668.54,2203.93l0,-184.07l30.594,0l0,191.943c-10.352,-2.228 -20.556,-4.858 -30.594,-7.873Z" style="fill:white;"/>
    </g>
    <g id="Right-inside-lens" serif:id="Right inside lens">
        <path d="M3042.12,1459.78c51.491,-24.217 108.981,-37.757 169.608,-37.757c47.513,0 93.098,8.316 135.38,23.569l0.046,0.017l0.339,0.123l0.34,0.122l0.046,0.017c42.264,15.303 82.632,38.053 119.166,68.429c46.619,38.76 82.169,85.926 106.279,137.468c24.218,51.491 37.757,108.981 37.757,169.608c0,47.513 -8.315,93.098 -23.569,135.38l-0.016,0.046l-0.123,0.339l-0.123,0.34l-0.016,0.046c-15.303,42.264 -38.053,82.632 -68.429,119.166c-38.761,46.619 -85.927,82.169 -137.468,106.279c-51.491,24.218 -108.981,37.757 -169.609,37.757c-18.05,0 -35.822,-1.2 -53.24,-3.525l0.001,-0.052c-9.337,-1.244 -18.645,-2.821 -27.904,-4.731l-0.001,0.044c-18.588,-3.843 -36.706,-8.98 -54.254,-15.311l-0.028,-0.01l-0.14,-0.051l-0.414,-0.15l-0.096,-0.035c-42.291,-15.303 -82.685,-38.062 -119.241,-68.455c-13.879,-11.54 -26.777,-23.825 -38.684,-36.749l0.075,-0.088c-6.387,-6.942 -12.531,-14.111 -18.419,-21.492l-0.082,0.097c-19.698,-24.694 -36.102,-51.31 -49.155,-79.207c-24.226,-51.499 -37.771,-108.999 -37.771,-169.638c0,-47.514 8.316,-93.102 23.572,-135.386l0.021,-0.06l0.234,-0.646l0.004,-0.012l0.001,-0.001c15.302,-42.28 38.058,-82.665 68.445,-119.212c38.76,-46.618 85.926,-82.168 137.468,-106.279Z"/>
        <path d="M3096.84,2203.93l0,-184.07l30.594,0l0,191.943c-10.352,-2.228 -20.556,-4.858 -30.594,-7.873Z" style="fill:white;"/>
    </g>
    <rect id="Glasses" x="2292.08" y="1821.38" width="410.996" height="54.851" style="stroke:black;stroke-width:20.83px;"/>
    <path d="M2450.52,2737.49l59.586,0l52.138,-487.863l0,-378.001l-163.862,0l0,378.001l52.138,487.863Zm29.793,450.621c100.552,0 137.793,-48.414 137.793,-111.724l0,-33.517c0,-63.311 -37.241,-111.725 -137.793,-111.725c-100.552,0 -137.793,48.414 -137.793,111.725l0,33.517c0,63.31 37.241,111.724 137.793,111.724Z" style="fill-rule:nonzero;stroke:black;stroke-width:16.67px;stroke-linecap:butt;stroke-miterlimit:1.41421;"/>
</svg>
