<?xml version="1.0" encoding="UTF-8" standalone="no"?>
<!DOCTYPE svg PUBLIC "-//W3C//DTD SVG 1.1//EN" "http://www.w3.org/Graphics/SVG/1.1/DTD/svg11.dtd">
<svg width="500px" viewBox="0 0 1696 175" version="1.1" xmlns="http://www.w3.org/2000/svg" xmlns:xlink="http://www.w3.org/1999/xlink" xml:space="preserve" xmlns:serif="http://www.serif.com/" style="fill-rule:evenodd;clip-rule:evenodd;stroke-linejoin:round;stroke-miterlimit:1.41421;">
    <g transform="matrix(1,0,0,1,-36.8028,-430.163)">
        <path d="M149.869,497.363L36.803,485.363L151.736,485.363C150.847,488.918 150.225,492.918 149.869,497.363ZM158.936,459.763L154.936,471.496L44.269,459.763L158.936,459.763ZM149.869,510.963C150.225,515.763 150.936,519.763 152.003,522.963L39.203,510.963L149.869,510.963ZM187.203,548.563L46.136,536.563L161.069,536.563C166.936,542.252 175.647,546.252 187.203,548.563ZM178.936,434.163C174.847,436.829 170.936,440.474 167.203,445.096L64.269,434.163L178.936,434.163ZM41.603,562.163L141.336,562.163L137.336,573.896L41.603,562.163ZM37.069,588.029L132.803,588.029L128.803,599.763L37.069,588.029ZM152.803,553.896C167.736,557.985 181.381,560.029 193.736,560.029C206.092,560.029 216.181,559.496 224.003,558.429L226.136,545.096L204.003,542.963C187.114,541.363 175.158,537.54 168.136,531.496C161.114,525.452 157.603,516.918 157.603,505.896C157.603,501.096 158.136,495.763 159.203,489.896C163.292,467.14 170.758,451.496 181.603,442.963C192.447,434.429 209.114,430.163 231.603,430.163C254.092,430.163 273.958,432.385 291.203,436.829L277.336,479.496C261.869,476.829 249.469,475.496 240.136,475.496C230.803,475.496 222.758,475.94 216.003,476.829L213.869,489.896L231.736,491.763C249.869,493.718 262.758,498.029 270.403,504.696C278.047,511.363 281.869,520.296 281.869,531.496C281.869,542.874 279.469,554.607 274.669,566.696C272.003,572.918 269.203,578.118 266.269,582.296C263.336,586.474 259.603,590.029 255.069,592.963C250.536,595.896 246.403,598.118 242.669,599.629C238.936,601.14 234.136,602.252 228.269,602.963C220.092,604.207 209.958,604.829 197.869,604.829C175.825,604.829 155.825,602.518 137.869,597.896L152.803,553.896Z" style="fill-rule:nonzero;"/>
        <path d="M434.936,600.829L348.269,600.829L372.803,459.763L419.736,459.763L401.869,561.629L441.869,561.629L434.936,600.829ZM339.469,600.029L226.403,588.029L341.603,588.029L339.469,600.029ZM348.536,548.563L235.469,536.563L350.669,536.563L348.536,548.563ZM353.069,522.963L240.003,510.963L355.203,510.963L353.069,522.963ZM357.603,497.363L244.536,485.363L359.736,485.363L357.603,497.363ZM362.136,471.763L249.069,459.763L364.003,459.763L362.136,471.763ZM344.003,574.163L230.936,562.163L346.136,562.163L344.003,574.163Z" style="fill-rule:nonzero;"/>
        <path d="M585.336,600.829L584.269,579.229L550.669,579.229L542.403,600.829L496.269,600.829L555.469,459.763L621.603,459.763L632.003,600.829L585.336,600.829ZM584.269,541.096L584.269,500.563L580.536,500.563L564.803,541.096L584.269,541.096ZM487.736,599.763L378.403,588.029L492.803,588.029L487.736,599.763ZM498.669,573.896L389.336,562.163L503.736,562.163L498.669,573.896ZM509.603,548.296L400.269,536.563L514.403,536.563L509.603,548.296ZM520.269,522.696L411.203,510.963L525.336,510.963L520.269,522.696ZM531.203,497.096L422.136,485.363L536.003,485.363L531.203,497.096ZM541.869,471.229L433.069,459.763L546.669,459.763L541.869,471.229Z" style="fill-rule:nonzero;"/>
        <path d="M790.936,597.896C781.336,601.985 768.003,604.029 750.936,604.029C733.869,604.029 721.292,600.429 713.203,593.229C705.114,586.029 701.069,574.696 701.069,559.229C701.069,552.296 702.136,542.696 704.269,530.429C708.714,504.652 716.403,485.985 727.336,474.429C738.269,462.874 755.736,457.096 779.736,457.096C796.981,457.096 808.803,459.052 815.203,462.963L801.603,500.029C792.714,497.54 784.625,496.296 777.336,496.296C770.047,496.296 764.936,496.918 762.003,498.163C759.069,499.407 757.247,501.807 756.536,505.363L746.136,562.429C749.869,563.318 756.314,563.763 765.469,563.763C774.625,563.763 784.536,561.807 795.203,557.896L790.936,597.896ZM694.936,536.563C694.225,542.074 693.781,545.807 693.603,547.763L588.536,536.563L694.936,536.563ZM700.003,510.963L697.603,522.163L593.336,510.963L700.003,510.963ZM693.336,562.163C693.336,565.007 693.692,568.74 694.403,573.363L589.603,562.163L693.336,562.163ZM709.336,485.363C707.203,489.985 705.692,493.54 704.803,496.029L604.003,485.363L709.336,485.363ZM698.936,588.029C701.069,592.296 703.381,595.585 705.869,597.896L612.803,588.029L698.936,588.029ZM732.536,459.763C728.269,462.252 724.625,465.185 721.603,468.563L639.736,459.763L732.536,459.763Z" style="fill-rule:nonzero;"/>
        <path d="M933.869,600.829L921.336,554.696L919.736,554.696L911.736,600.829L866.936,600.829L891.469,459.763L936.536,459.763L928.803,502.963L930.136,502.963L957.603,459.763L1006.4,459.763L961.603,528.829L982.669,600.829L933.869,600.829ZM858.136,600.029L745.069,588.029L860.269,588.029L858.136,600.029ZM867.203,548.563L754.136,536.563L869.336,536.563L867.203,548.563ZM871.736,522.963L758.669,510.963L873.869,510.963L871.736,522.963ZM876.269,497.363L763.203,485.363L878.403,485.363L876.269,497.363ZM880.803,471.763L767.736,459.763L882.669,459.763L880.803,471.763ZM862.669,574.163L749.603,562.163L864.803,562.163L862.669,574.163Z" style="fill-rule:nonzero;"/>
        <path d="M934.936,588.029L1050.14,588.029L1046.4,600.029L934.936,588.029ZM1070.4,485.363C1069.34,488.207 1068.18,492.207 1066.94,497.363L955.469,485.363L1070.4,485.363ZM1063.74,520.829L1063.74,522.963L950.669,510.963L1064.27,510.963C1063.91,515.229 1063.74,518.518 1063.74,520.829ZM1054.94,573.896L943.736,562.163L1058.67,562.163L1054.94,573.896ZM1088.8,459.763C1084,463.318 1080.36,467.052 1077.87,470.963L973.869,459.763L1088.8,459.763ZM1066.14,536.563C1067.74,541.185 1070.31,545.185 1073.87,548.563L961.069,536.563L1066.14,536.563ZM1172.54,501.629C1160.45,498.785 1150.14,497.363 1141.6,497.363C1133.07,497.363 1126.76,497.629 1122.67,498.163L1121.34,505.896L1134.67,507.496C1163.29,511.229 1177.6,523.052 1177.6,542.963C1177.6,545.274 1177.07,549.585 1176,555.896C1174.94,562.207 1173.16,568.296 1170.67,574.163C1168.18,580.029 1165.03,584.785 1161.2,588.429C1157.38,592.074 1153.65,595.007 1150,597.229C1146.36,599.452 1141.69,601.007 1136,601.896C1127.11,603.318 1115.25,604.029 1100.4,604.029C1085.56,604.029 1070.58,601.985 1055.47,597.896L1068.54,558.429C1082.4,562.34 1094.54,564.296 1104.94,564.296C1115.34,564.296 1122.67,564.029 1126.94,563.496L1128.27,554.963L1111.47,553.096C1097.07,551.496 1086.85,548.118 1080.8,542.963C1074.76,537.807 1071.74,530.429 1071.74,520.829C1071.74,517.274 1072.18,512.829 1073.07,507.496C1076.62,488.474 1083.03,475.318 1092.27,468.029C1101.51,460.74 1115.6,457.096 1134.54,457.096C1153.47,457.096 1170.4,458.963 1185.34,462.696L1172.54,501.629Z" style="fill-rule:nonzero;"/>
        <path d="M1333.6,597.896C1324,601.985 1310.67,604.029 1293.6,604.029C1276.54,604.029 1263.96,600.429 1255.87,593.229C1247.78,586.029 1243.74,574.696 1243.74,559.229C1243.74,552.296 1244.8,542.696 1246.94,530.429C1251.38,504.652 1259.07,485.985 1270,474.429C1280.94,462.874 1298.4,457.096 1322.4,457.096C1339.65,457.096 1351.47,459.052 1357.87,462.963L1344.27,500.029C1335.38,497.54 1327.29,496.296 1320,496.296C1312.71,496.296 1307.6,496.918 1304.67,498.163C1301.74,499.407 1299.91,501.807 1299.2,505.363L1288.8,562.429C1292.54,563.318 1298.98,563.763 1308.14,563.763C1317.29,563.763 1327.2,561.807 1337.87,557.896L1333.6,597.896ZM1237.6,536.563C1236.89,542.074 1236.45,545.807 1236.27,547.763L1131.2,536.563L1237.6,536.563ZM1242.67,510.963L1240.27,522.163L1136,510.963L1242.67,510.963ZM1236,562.163C1236,565.007 1236.36,568.74 1237.07,573.363L1132.27,562.163L1236,562.163ZM1252,485.363C1249.87,489.985 1248.36,493.54 1247.47,496.029L1146.67,485.363L1252,485.363ZM1241.6,588.029C1243.74,592.296 1246.05,595.585 1248.54,597.896L1155.47,588.029L1241.6,588.029ZM1275.2,459.763C1270.94,462.252 1267.29,465.185 1264.27,468.563L1182.4,459.763L1275.2,459.763Z" style="fill-rule:nonzero;"/>
        <path d="M1490.94,457.096C1510.14,457.096 1523.83,460.785 1532,468.163C1540.18,475.54 1544.27,487.052 1544.27,502.696C1544.27,510.34 1543.29,519.585 1541.34,530.429C1536.89,556.029 1529.07,574.696 1517.87,586.429C1506.67,598.163 1489.07,604.029 1465.07,604.029C1446.23,604.029 1432.8,600.34 1424.8,592.963C1416.8,585.585 1412.8,574.163 1412.8,558.696C1412.8,550.696 1413.78,541.274 1415.74,530.429C1420.18,504.829 1427.91,486.207 1438.94,474.563C1449.96,462.918 1467.29,457.096 1490.94,457.096ZM1472.8,563.496C1477.96,563.496 1481.83,562.874 1484.4,561.629C1486.98,560.385 1488.71,557.629 1489.6,553.363L1499.74,497.629L1483.47,497.629C1478.49,497.629 1474.62,498.252 1471.87,499.496C1469.11,500.74 1467.47,503.407 1466.94,507.496L1457.07,563.496L1472.8,563.496ZM1406.4,536.563C1405.69,542.074 1405.25,545.807 1405.07,547.763L1300,536.563L1406.4,536.563ZM1411.47,510.963L1409.07,522.163L1304.8,510.963L1411.47,510.963ZM1404.8,562.163C1404.8,565.007 1405.16,568.74 1405.87,573.363L1301.07,562.163L1404.8,562.163ZM1420.8,485.363C1418.67,489.985 1417.16,493.54 1416.27,496.029L1315.47,485.363L1420.8,485.363ZM1410.4,588.029C1412.54,592.296 1414.85,595.585 1417.34,597.896L1324.27,588.029L1410.4,588.029ZM1444,459.763C1439.74,462.252 1436.09,465.185 1433.07,468.563L1351.2,459.763L1444,459.763Z" style="fill-rule:nonzero;"/>
        <path d="M1724.8,499.763L1696,499.763L1678.4,600.829L1631.47,600.829L1649.07,499.763L1619.47,499.763L1626.67,459.763L1732,459.763L1724.8,499.763ZM1623.47,600.029L1510.4,588.029L1625.6,588.029L1623.47,600.029ZM1632.54,548.563L1519.47,536.563L1634.67,536.563L1632.54,548.563ZM1637.07,522.963L1524,510.963L1639.2,510.963L1637.07,522.963ZM1611.47,497.363L1498.4,485.363L1613.6,485.363L1611.47,497.363ZM1616,471.763L1502.94,459.763L1617.87,459.763L1616,471.763ZM1628,574.163L1514.94,562.163L1630.14,562.163L1628,574.163Z" style="fill-rule:nonzero;"/>
    </g>
</svg>
